<?xml version="1.0" standalone="no"?>
<!DOCTYPE svg PUBLIC "-//W3C//DTD SVG 20010904//EN"
 "http://www.w3.org/TR/2001/REC-SVG-20010904/DTD/svg10.dtd">
<svg version="1.0" xmlns="http://www.w3.org/2000/svg"
 width="600.000000pt" height="600.000000pt" viewBox="0 0 600.000000 600.000000"
 preserveAspectRatio="xMidYMid meet">
<metadata>
Created by potrace 1.14, written by Peter Selinger 2001-2017
</metadata>
<g transform="translate(0.000000,600.000000) scale(0.100000,-0.100000)"
fill="#000000" stroke="none">
<path d="M1417 5849 c-41 -22 -141 -117 -199 -189 -20 -25 -51 -63 -70 -86
-107 -130 -329 -485 -469 -749 -34 -66 -89 -154 -120 -195 -214 -283 -380
-623 -469 -960 -7 -25 -14 -52 -15 -60 -2 -8 -8 -36 -14 -61 -15 -68 -40 -223
-48 -309 -15 -148 -7 -536 13 -633 2 -12 6 -37 9 -54 15 -110 64 -313 106
-438 124 -364 342 -732 601 -1011 91 -97 252 -249 302 -284 12 -8 32 -25 46
-38 47 -43 335 -231 440 -286 245 -128 543 -240 760 -285 25 -5 56 -12 70 -15
14 -4 68 -13 120 -22 52 -8 105 -17 116 -19 156 -26 629 -27 784 -1 14 2 50 7
80 11 85 10 284 52 405 86 371 105 782 318 1080 560 424 344 753 814 917 1312
28 87 80 287 92 357 3 19 8 44 10 55 2 11 7 47 11 80 3 33 10 89 14 125 9 72
7 447 -3 525 -8 61 -26 197 -32 245 -2 19 -6 49 -9 65 -7 45 -13 88 -30 220
-4 28 -13 88 -20 135 -8 47 -17 103 -20 125 -3 23 -7 52 -10 65 -3 13 -7 42
-10 65 -7 44 -21 124 -61 325 -113 580 -268 1006 -414 1138 -56 51 -90 65
-154 65 -115 -1 -269 -69 -494 -220 l-144 -97 -156 80 c-87 44 -175 87 -197
96 -91 38 -226 87 -310 112 -49 15 -103 32 -120 36 -26 8 -132 32 -200 45 -52
11 -216 35 -265 40 -30 3 -77 7 -105 10 -70 8 -398 8 -470 0 -263 -27 -428
-56 -624 -111 -124 -35 -355 -118 -378 -136 -13 -11 -23 5 -43 67 -16 48 -65
130 -100 167 -60 63 -138 82 -203 47z"/>
</g>
</svg>
